Coordinates
version=1
nRows=24
nColumns=24
inDegrees=yes

Units are S.I. units (second, meters, Newtons, ...)
If the header above contains a line with 'inDegrees', this indicates whether rotational values are in degrees (yes) or radians (no).

endheader
time	pelvis_tilt	pelvis_list	pelvis_rotation	pelvis_tx	pelvis_ty	pelvis_tz	hip_flexion_r	hip_adduction_r	hip_rotation_r	knee_angle_r	ankle_angle_r	subtalar_angle_r	mtp_angle_r	hip_flexion_l	hip_adduction_l	hip_rotation_l	knee_angle_l	ankle_angle_l	subtalar_angle_l	mtp_angle_l	lumbar_extension	lumbar_bending	lumbar_rotation
1.0	6.032618653793778	-0.7618348892547072	0.12481717614067114	-0.8057695182718828	4.2558056972770935	-0.47712551719309765	-11.212141661726541	2.272800915692554	-7.560052281477104	-7.6840478416605915	13.873543300543146	-1.0013979689957357	12.766853647333232	21.46713196824745	-3.9950710598035335	-4.1418115741992985	-48.86064089025128	-1.0861911681592353	7.836651016761164	-7.364163488997216	-19.506704550217695	-4.281054906401348	3.807331683958484
1.017	2.534325936849088	-4.460015363976374	-5.897503842695011	0.41295833403788995	2.8951899868205673	-5.112661343891049	4.685525696202441	0.9166181757576872	-0.0718925560250927	-10.652485819521665	7.599745712847722	-5.177130034484675	5.979135556404648	24.18738050965069	-2.698419173658717	-8.765647055065791	-53.541121669333634	9.805374376532981	5.791898155690514	5.887667547152136	-16.776347940420443	-0.7160262354993988	9.95909054226896
1.033	7.845980048514217	0.927328133104405	-5.163562495646766	1.6775704263331663	4.455188495035061	-4.612076837383099	-9.477797453336184	4.464922195271506	-6.980164021458124	-20.369688914979278	4.117509564452195	7.81250354884558	-4.142356619545327	15.595931194254556	1.911280521605021	-2.2620119474080913	-46.18509674971444	10.112015203101578	2.446102388425231	1.1297809935151095	-21.234787243932224	3.3990372778763196	-4.499901691784509
1.05	1.3835716672290403	2.0998394023858222	2.7205525987439283	-2.171619089270468	4.627998253169954	3.2758424648697444	-5.410947465930558	3.0962606320973225	-0.6608764509136731	-9.632948135793123	6.018483409386516	2.585597552272456	0.16678630347826678	17.490319612519905	-7.423941458057342	-4.679636846984334	-53.94494887777719	-7.618764104935407	7.039857382562914	2.413259226861427	-7.833171798835723	-0.25751652889427734	-5.5696488339416685
1.067	8.019905481922814	-5.704277578463428	-7.428734244569348	12.408653003114994	2.928384120586681	0.28494782082878617	-5.857612319859246	-0.6783917340146233	-9.08949846528359	-10.471158237600179	10.986412649062014	-1.6750048348849547	7.681950649045387	25.26629660110871	-10.622199696346279	-8.429388549627058	-44.91922811040061	-1.7751550125297957	-5.283950819321632	-2.198668047097606	-15.381686555314937	-1.0519103535593928	-6.352106123806157
1.083	0.9015968339755114	0.3758623474452174	-1.2807481442708262	4.689503911849959	-5.136173719634871	-2.460728713837152	-4.297739562325071	11.164837545616509	-8.945206648001744	-11.640063688504494	15.235400594986688	0.006495377057374226	-2.1224341826613724	18.444494694465988	-4.653096407547465	-12.432319206843852	-31.56951632776713	6.595785617347592	-2.9657526751897847	-0.8686778605470641	-14.677953383825722	-2.519730840813378	9.324057280438065
1.1	7.487808217302916	4.087715666202865	-7.183168401361123	1.3668714406869211	-9.286294327549076	9.509101188769309	-2.2836314653687015	4.182609013323924	1.6549684816082944	-6.7845424895166575	11.518518724385553	-2.0800266591341967	-1.8081058230953237	22.439686763289544	-1.4739633904794571	-11.648835845229485	-28.28631461684334	1.690302997503395	-0.03963139195399461	-6.790371822136576	-19.589219504359885	-2.5059759317924266	-1.496179364837074
1.117	-2.3738991583622955	1.097527563954583	-3.3680494748793413	0.762773042013512	-6.792740677551853	3.564241694530301	-5.137174492626265	2.0473961710532746	-9.55407704870793	-2.902752604018789	5.4236405350479755	9.726232208530353	-3.8389852831261044	23.454719372740282	-6.2560575048231115	-20.212821651858434	-22.306640857435823	1.3926471840129824	1.14377099183427	4.536910428746949	-22.44000244945953	-0.9663580422600715	-0.0355489847069026
1.133	11.482030511113393	6.3836055388893245	-6.9687465706854015	5.332237248060396	3.65694529163203	-6.418856444875394	-17.32145665375328	-0.6481524245473036	3.659560834321944	-1.062414835586618	2.8731724911238388	1.4083709227852261	-10.64865765426837	23.693310599426937	-10.199522007784058	-9.496199575349992	-21.107867528718522	-9.705922352515516	2.9948249720962408	9.70894884398369	-12.353766122207343	0.2393575405650128	9.703949880315278
1.15	-2.5630051654689066	-3.641817017423094	-3.3425148131720848	7.58320755357559	11.689944486319227	5.526318999850599	-8.643634009242707	5.2541913761956645	-8.611565500528465	-6.79037172233267	-0.20033664425763043	2.316459521820644	1.8230047696734917	11.396743064504115	-12.174260626932742	1.4478565134147168	-8.429538302315386	-2.9178784276570475	-6.447561458669226	-3.8914875958700894	-24.091829986473748	11.695554421875219	8.265293391803572
1.167	6.979815441010438	-7.031163427467718	2.941017186983014	3.388774457873742	-0.9553845975651991	1.5848186541529827	-16.734742647783435	4.8688953101551915	-3.5940756992333083	-7.423576511857298	13.920826482050993	1.048762345084024	-10.558612190682652	28.86829281930759	-4.324332994435139	-1.7073750539189776	1.3351191207090851	-6.382148209518555	5.296304154953036	2.9642762877219457	-31.36548044715066	6.303671516310597	8.24097500575594
1.183	9.261435566758754	-1.5028464921303044	3.2066646385698583	2.2683305247245773	-5.278239587861659	-5.613789524003071	-10.347017892254284	13.707879943484073	-3.1175351204179815	-8.57580014658822	7.523423962383149	2.985967855808361	2.50717841748189	15.97308779706467	0.28211203230675075	-6.6384585555200655	-5.591519945873419	-0.09722062595078773	0.21727286740403673	4.614675820628799	-13.228964155206992	10.906457375636563	-1.7692107145910718
1.2	5.579574101213847	-7.53836435742495	8.440116839026441	-6.220102185063938	3.6229393124824325	-0.6128427938570149	-19.69396561967549	7.145365042962024	-0.23163202165875774	-7.0271319985531715	15.362984376952278	0.07152225420872318	-1.1707095775051082	21.723039828618106	-4.533019622891657	-6.54783774859626	2.5891453952595054	-0.11928312913842676	4.886120833977366	4.0315715188231565	-15.364872383404355	0.12594875492681235	6.652269443794927
1.217	6.976150129843067	-1.8914428703375235	-7.395432491865661	-0.7677411272100443	5.1763956193040865	-4.089641734120411	-21.292138885409425	3.9142296760261086	-3.832507326490239	-4.452505974846992	2.3432288969406336	-3.6152307840414024	-2.237004143509726	16.52778147723294	-8.282492438059123	-4.452054606095778	5.356375106341159	-4.3678324946798375	-4.738721480199795	4.768125442957031	-12.862529239875101	7.089134849965455	8.373108352651812
1.233	7.447678144383213	-4.215064715472391	-5.851668079522611	2.729781609015527	-5.579984625332839	1.574975318902847	-33.594455868012695	4.804854614973337	4.096955773116217	-7.7509675891959136	12.83314249458565	-2.311467533038899	1.2696156755421826	23.006516462439382	-7.0344874620423745	-14.054585550276972	-5.6703876827392765	1.8934607630167917	-7.544602249390635	-1.4564117106193475	-15.50349959471416	-3.8434820396270744	7.803147045929919
1.25	8.917125012972981	-2.137688509163402	-4.984938057976544	4.556639668150539	-4.774140145556402	0.02403841249672764	-14.029128397819512	9.888610866921812	3.6304278141036237	-11.019944646440083	11.247238182651719	-2.5504663538643215	4.530467768776669	21.721870313526058	0.6478306084193628	-4.033349464549247	3.9204203052039794	0.5711556646456568	2.147241660129313	2.8417151871938473	-10.386471188676389	3.183895056839991	1.6481557487647032
1.267	8.512316411113364	-11.000158879272725	-9.589339653498184	2.5751119958126094	4.696048567303797	-1.041153072589113	-19.799616902398554	4.607312940460541	5.863679724706211	-18.319192628533315	19.572381178356647	3.61955556793855	-8.992850065886314	19.395820161586887	-1.3706072788906116	1.8250584672375858	-7.481739728182099	-13.129129265101593	-9.762604750756575	10.164247315408655	-21.151951746599586	5.206744548111216	1.435985467574464
1.283	1.0582766632388214	-3.8950400044723965	-6.762685508839925	6.732387135118868	4.047347103003116	-6.558376281715779	-15.651869006975017	-0.515494610769208	0.8602061203928115	-8.48994537825985	20.03718100023699	4.332481848371099	1.0002728639188236	13.818830328028458	6.386365071333343	-5.6508036902952625	-5.091093104656423	-3.6495764677551925	3.895920983760071	5.296076686133169	-12.962360567521824	6.162666823314639	4.712421099386927
1.3	6.979089058123672	0.17406565148773945	-2.505393154088772	-3.9812285273876578	7.354675151332482	3.911276650943212	-14.654809464245234	3.5168544016458636	7.2774826108565165	-15.584139045401304	13.752471758085862	3.0147059671114644	1.3854759063112796	17.962034320487295	-11.13506111664919	-4.028528552021991	-8.948847895009816	3.158699077537211	-4.9554770883767345	-3.258006147810235	-21.561480497239607	-1.286174129281155	6.28236643607758
1.317	-6.397123064140312	-5.009948995410287	1.7028872937490256	-9.241700514647864	4.050561181931048	0.5178881295753047	-22.84935472757206	3.967398006067767	6.176139684959795	-16.032473101405923	17.42598172566476	-0.3796312755755972	-1.6628553227873688	22.570550740014454	-11.880255972572687	2.486196855907461	-8.350638783531545	-4.6255499736426025	10.996356360974612	-2.0227440926675797	-14.95736223133946	2.0219389404395463	8.435686671473029
1.333	-3.7577671567453548	-7.567078362569022	-4.4282158187589165	2.6921266928493943	-3.345812258685603	3.0997448733011295	-21.46375851941928	-6.953801800579852	5.135168443944069	-22.975312490561457	15.907026250547862	-4.5273054339478565	2.888926736530393	21.646473087873737	-7.733680783940565	-4.482533284152353	-21.897280416486026	0.3590238201328493	-3.328884850623965	-0.1347594430312701	-9.691338684766443	1.6418384708507197	7.000176813137243
1.35	2.0171187386148146	-3.922070972111567	-2.6924013175479145	4.80922526928857	1.4555866019562402	9.237941049006364	-4.9358105715814595	-6.772896280146056	-0.9936101965581807	-39.5273352076271	7.963705592053796	1.734181305774373	0.11376241868114459	15.741536057501909	-0.3558449705756912	-2.5010430861385893	-20.203412438413594	-6.485954388577286	3.65303857289443	-7.086780334695413	-27.271531293055386	-10.221918639104953	1.2893312613056618
1.367	18.216799325892516	-4.773870207332369	-1.3847099383611203	8.466448887816053	-6.556929937614063	6.39245933544479	-11.705779299341945	-5.4601954434744355	-0.17872531950730308	-32.473665921608195	1.4884838788480241	-6.1159741658766995	4.802416252740841	21.972622585881307	-8.996478045641263	-0.500371162350592	-13.857531494547644	0.0765352209409298	-2.2273742613933027	2.52580749625928	-12.61539548381165	-0.9609944550659519	-5.078606161782382
1.383	7.905436113255922	0.9503259825731822	-0.7169519683972165	-4.595175872789372	2.7679902844350046	-0.13878861213429505	-8.212485387728174	-4.630605588134226	2.002184975950898	-44.49782184621093	5.5902546241207665	-0.7491066506949335	-7.615853894432605	23.38168486315648	-3.9142325990411933	1.404672563386554	-20.057212432409713	-9.675038977038865	-3.779664047131937	-0.233946239417223	-10.360841275324074	-6.920926134595972	-10.602965973274554
